<svg width="19" height="18" viewBox="0 0 19 18" fill="none" xmlns="http://www.w3.org/2000/svg">
<path fill-rule="evenodd" clip-rule="evenodd" d="M19 11.0358V18H14.9277V11.5022C14.9277 9.86991 14.3387 8.75593 12.8646 8.75593C11.7394 8.75593 11.0697 9.50667 10.7752 10.2329C10.6677 10.4925 10.6401 10.8539 10.6401 11.2173V18H6.56638C6.56638 18 6.62124 6.99487 6.56638 5.85466H10.6397V7.57621C10.6314 7.58909 10.6207 7.60297 10.6129 7.61545H10.6397V7.57621C11.1808 6.74984 12.1473 5.56933 14.3106 5.56933C16.9908 5.56929 19 7.30521 19 11.0358ZM2.30513 0C0.911531 0 0 0.906258 0 2.09802C0 3.26381 0.885159 4.19757 2.25106 4.19757H2.27828C3.69887 4.19757 4.58235 3.26398 4.58235 2.09802C4.55558 0.906258 3.69887 0 2.30513 0ZM0.241941 18H4.31408V5.85466H0.241941V18Z" fill="#B9B9B9"/>
</svg>
