<svg width="20" height="20" viewBox="0 0 20 20" fill="none" xmlns="http://www.w3.org/2000/svg">
<path fill-rule="evenodd" clip-rule="evenodd" d="M14.0419 0H5.95811C2.67279 0 0 2.67279 0 5.95811V14.0419C0 17.3272 2.67279 20 5.95811 20H14.0419C17.3272 20 20 17.3272 20 14.0419V5.95811C20 2.67279 17.3272 0 14.0419 0ZM17.988 14.0419C17.988 16.2212 16.2212 17.988 14.0419 17.988H5.95811C3.77875 17.988 2.012 16.2212 2.012 14.0419V5.95811C2.012 3.77871 3.77875 2.012 5.95811 2.012H14.0419C16.2212 2.012 17.988 3.77871 17.988 5.95811V14.0419Z" fill="#B9B9B9"/>
<path fill-rule="evenodd" clip-rule="evenodd" d="M10 5C7.243 5 5 7.243 5 9.99998C5 12.757 7.243 15 10 15C12.757 15 15 12.757 15 9.99998C15 7.24297 12.757 5 10 5ZM10 13.0552C8.31266 13.0552 6.94482 11.6874 6.94482 10C6.94482 8.31267 8.31269 6.94483 10 6.94483C11.6873 6.94483 13.0552 8.31267 13.0552 10C13.0552 11.6873 11.6873 13.0552 10 13.0552Z" fill="#B9B9B9"/>
<path fill-rule="evenodd" clip-rule="evenodd" d="M15 6C15.5523 6 16 5.55228 16 5C16 4.44772 15.5523 4 15 4C14.4477 4 14 4.44772 14 5C14 5.55228 14.4477 6 15 6Z" fill="#B9B9B9"/>
</svg>
