<svg width="20" height="16" viewBox="0 0 20 16" fill="none" xmlns="http://www.w3.org/2000/svg">
<path fill-rule="evenodd" clip-rule="evenodd" d="M19.172 0.788173C18.6878 0.292436 17.9868 0.0283701 17.0889 0.00332929C14.5535 -0.0743321 12.7604 1.20704 11.7595 3.81136C11.707 3.94813 11.7391 4.09977 11.8431 4.20716C11.9467 4.31393 12.1022 4.35639 12.2492 4.31809C12.537 4.24288 12.8224 4.20479 13.0976 4.20479C13.4671 4.20479 13.9588 4.26932 14.2036 4.57677C14.3915 4.81273 14.4171 5.16654 14.2796 5.62831C14.1636 6.01788 13.5665 7.06075 12.8274 8.1643C11.927 9.50879 11.4296 10.1115 11.2862 10.1115C10.8111 10.1115 9.09432 2.87973 9.04713 2.72113C8.5547 1.06371 8.30753 0.231761 6.7063 0.231761C5.48593 0.231761 2.764 2.34893 0.529061 4.19341C0.391601 4.30684 0.275845 4.40241 0.186217 4.47516C-0.0298117 4.65062 -0.0623911 4.9554 0.112165 5.16899L0.528647 5.67874C0.704078 5.89351 1.02407 5.93834 1.25728 5.78079L1.28019 5.76529C2.00325 5.2766 2.68631 4.81505 3.20196 4.78975C3.7623 4.76361 4.24851 5.59526 4.82816 7.57422C5.93213 11.418 7.60939 16 9.33071 16C11.1295 16 13.2755 14.5514 16.0494 11.1219C18.56 8.01799 19.9044 5.55625 19.9907 3.76518C20.0556 2.41241 19.7801 1.41082 19.172 0.788173Z" fill="#B9B9B9"/>
</svg>
