<svg width="140" height="32" viewBox="0 0 140 32" fill="none" xmlns="http://www.w3.org/2000/svg">
<path fill-rule="evenodd" clip-rule="evenodd" d="M45.0188 12.0863C43.1652 12.5013 41.5359 13.7905 40.7158 15.502C39.3807 18.1355 40.0979 21.6394 42.4444 23.4685C44.8533 25.4665 48.7187 25.3232 50.9622 23.1342C53.3087 20.9783 53.6323 17.0667 51.7198 14.5324C50.245 12.4646 47.4793 11.4913 45.0188 12.0863ZM52.9629 4.7075C53.4705 4.7075 53.9817 4.70383 54.4929 4.7075C54.5003 11.8071 54.4929 18.9068 54.4966 26.0064C53.9854 26.0064 53.4742 26.0101 52.9703 26.0174C52.9629 24.8641 52.9519 23.7109 52.9777 22.5576C52.1428 23.9092 50.9953 25.1102 49.5058 25.7236C46.5231 27.0385 42.768 26.2415 40.5944 23.8137C38.1854 21.2501 37.8508 17.0703 39.7338 14.1174C41.2417 11.6492 44.2097 10.2058 47.0858 10.4812C49.5389 10.6135 51.7529 12.1303 52.9703 14.2312C52.9556 11.0579 52.9703 7.88453 52.9629 4.7075Z" fill="white"/>
<path fill-rule="evenodd" clip-rule="evenodd" d="M63.9971 11.9639C60.1791 12.6142 57.8223 17.1142 59.2834 20.687C60.4875 24.3003 65.1351 25.9888 68.3987 24.1008C71.6366 22.4345 72.7159 17.8606 70.7445 14.831C69.3899 12.5662 66.5485 11.406 63.9971 11.9639ZM58.9383 13.4492C60.8032 10.9405 64.221 9.79518 67.2166 10.6154C69.1329 11.0772 70.7078 12.4368 71.7504 14.0883C71.7247 12.9578 71.7284 11.8235 71.7357 10.6967C72.2497 10.6967 72.7673 10.6967 73.2886 10.7004C73.2812 15.8063 73.2959 20.9086 73.2812 26.0146C72.8921 26.0109 72.1212 26.0072 71.7357 26.0035C71.7284 24.8693 71.7247 23.7313 71.7504 22.5971C70.8877 23.9604 69.7056 25.1612 68.1931 25.7597C65.1094 27.0824 61.2511 26.1329 59.1402 23.5134C56.7834 20.735 56.7026 16.3199 58.9383 13.4492Z" fill="white"/>
<path fill-rule="evenodd" clip-rule="evenodd" d="M97.801 11.9672C93.97 12.6321 91.6325 17.1718 93.1297 20.7438C94.3663 24.3121 98.9606 25.9669 102.201 24.1052C105.463 22.443 106.545 17.8404 104.549 14.8041C103.184 12.5471 100.348 11.402 97.801 11.9672ZM92.7444 13.478C94.5938 10.9551 98.0138 9.79519 101.015 10.6115C102.942 11.0696 104.527 12.4289 105.569 14.0912C105.544 12.9571 105.547 11.8268 105.555 10.6965C106.068 10.6965 106.59 10.6965 107.111 10.7002C107.111 15.8014 107.107 20.899 107.114 26.0002C106.59 26.0002 106.068 26.0039 105.555 26.0076C105.558 24.8773 105.54 23.7469 105.555 22.6166C104.527 24.3047 102.905 25.653 100.971 26.1073C98.0102 26.8904 94.6525 25.7601 92.7994 23.3C90.6087 20.5259 90.5867 16.2779 92.7444 13.478Z" fill="white"/>
<mask id="mask0" mask-type="alpha" maskUnits="userSpaceOnUse" x="125" y="10" width="15" height="17">
<path fill-rule="evenodd" clip-rule="evenodd" d="M139.748 10.6802V26.0809H125.066V10.6802H139.748V10.6802Z" fill="white"/>
</mask>
<g mask="url(#mask0)">
<path fill-rule="evenodd" clip-rule="evenodd" d="M128.064 14.0876C127.173 15.0796 126.729 16.388 126.575 17.7071C130.466 17.6894 134.361 17.7071 138.252 17.6965C138.053 16.1889 137.539 14.6636 136.41 13.6147C134.141 11.3889 130.099 11.684 128.064 14.0876ZM126.424 13.8209C128.627 10.4751 133.693 9.63958 136.826 12.1071C138.93 13.7285 139.906 16.516 139.727 19.1471C135.336 19.1542 130.948 19.14 126.557 19.1542C126.757 20.292 127.085 21.4476 127.819 22.3614C130.19 25.5151 135.7 25.4511 137.777 21.9916C138.193 22.244 138.612 22.5 139.039 22.756C136.556 26.7987 130.277 27.1685 127.11 23.7907C124.634 21.1774 124.411 16.7756 126.424 13.8209Z" fill="white"/>
</g>
<path fill-rule="evenodd" clip-rule="evenodd" d="M76.2251 10.6735C76.7714 10.6698 77.3251 10.6698 77.8825 10.6661C79.8955 15.1643 81.9708 19.6368 83.9692 24.1424C85.8539 19.6845 87.4819 15.1203 89.3226 10.6441C89.858 10.6515 90.397 10.6625 90.936 10.6698C88.7103 16.2907 86.5029 21.9153 84.2626 27.5288C83.3129 29.9357 81.1092 32.1298 78.3591 31.994C78.3555 31.517 78.3555 31.0474 78.3591 30.5741C80.9148 30.6622 82.4879 28.292 83.2175 26.1383C80.8745 20.9907 78.5645 15.8248 76.2251 10.6735Z" fill="white"/>
<path fill-rule="evenodd" clip-rule="evenodd" d="M110.295 10.3638C110.913 10.3602 111.531 10.3529 112.16 10.3529C113.776 12.3797 115.367 14.4282 116.98 16.4622C118.596 14.4282 120.205 12.3869 121.826 10.3566C122.432 10.3566 123.046 10.3566 123.664 10.3602C121.759 12.7937 119.843 15.2127 117.938 17.6426C119.961 20.236 122.011 22.8112 124.027 25.4118C123.398 25.4045 122.773 25.4045 122.151 25.4081C120.427 23.2216 118.707 21.0387 116.98 18.8594C115.248 21.0387 113.532 23.2325 111.801 25.4118C111.172 25.4081 110.55 25.4081 109.933 25.4118C111.96 22.822 114.017 20.2578 116.055 17.6753C114.139 15.2345 112.211 12.801 110.295 10.3638Z" fill="white"/>
<path fill-rule="evenodd" clip-rule="evenodd" d="M12.7552 13.5981C11.1501 13.9147 9.77955 15.2319 9.37415 16.8572C8.94817 18.3749 9.41119 20.0995 10.506 21.2035C11.5514 22.3054 13.1771 22.7951 14.6341 22.4193C16.2433 22.0457 17.5851 20.661 17.9226 18.9998C18.2662 17.5201 17.7847 15.8757 16.7187 14.8203C15.7083 13.7649 14.1649 13.292 12.7552 13.5981ZM12.3025 8.05923C8.49955 8.54683 5.15961 11.5421 4.17595 15.3417C3.3137 18.4172 4.0319 21.8874 6.01363 24.355C8.15177 27.1054 11.7716 28.5492 15.1588 27.9561C16.4327 27.7239 17.7374 27.3207 18.7828 26.5186C19.4475 25.9107 18.5317 24.6843 17.8156 25.2922C15.4531 26.7339 12.3848 26.8563 9.93595 25.5645C7.81222 24.4816 6.19267 22.413 5.63498 20.0467C4.96 17.3427 5.71935 14.3221 7.59202 12.2957C8.85968 10.8772 10.6171 9.92733 12.4774 9.6698C14.8893 9.30674 17.439 10.1215 19.2149 11.8355C20.7583 13.2878 21.7255 15.3691 21.8387 17.5179C21.8737 20.0467 21.8058 22.5798 21.8696 25.1086C22.0116 25.9212 23.2566 25.9276 23.415 25.1212C23.4727 22.7951 23.4192 20.4668 23.4397 18.1385C23.4727 15.1538 22.1433 12.188 19.8899 10.2967C17.8135 8.50884 14.988 7.66027 12.3025 8.05923ZM23.4418 0.0042217C24.7094 -0.00211085 25.9771 1.67347e-10 27.2448 0.00211085C27.2489 5.97371 27.2448 11.9432 27.2468 17.9148C27.2941 21.0747 26.2282 24.2347 24.304 26.7023C22.2174 29.4231 19.1058 31.2955 15.77 31.8232C12.6935 32.3382 9.45234 31.7176 6.76476 30.0986C4.32823 28.6485 2.35473 26.4025 1.20026 23.7661C-0.217621 20.5745 -0.384309 16.8256 0.726945 13.5094C1.73736 10.455 3.81582 7.79326 6.49929 6.11513C9.298 4.33569 12.7408 3.66866 15.982 4.26181C18.8095 4.74519 21.4271 6.22912 23.4439 8.30619C23.4397 5.53887 23.4418 2.77155 23.4418 0.0042217Z" fill="white"/>
</svg>
