<svg width="68" height="12" fill="none" xmlns="http://www.w3.org/2000/svg"><path opacity=".3" fill-rule="evenodd" clip-rule="evenodd" d="M62 9.95L58.292 12 59 7.658l-3-3.074 4.146-.634L62 0l1.854 3.95L68 4.584l-3 3.074.708 4.342L62 9.95z" fill="#1EB6FF"/><path fill-rule="evenodd" clip-rule="evenodd" d="M48 9.95L44.292 12 45 7.658l-3-3.074 4.146-.634L48 0l1.854 3.95L54 4.584l-3 3.074.708 4.342L48 9.95zm-14 0L30.292 12 31 7.658l-3-3.074 4.146-.634L34 0l1.854 3.95L40 4.584l-3 3.074.708 4.342L34 9.95zm-14 0L16.292 12 17 7.658l-3-3.074 4.146-.634L20 0l1.854 3.95L26 4.584l-3 3.074.708 4.342L20 9.95zm-14 0L2.292 12 3 7.658 0 4.584l4.146-.634L6 0l1.854 3.95L12 4.584 9 7.658 9.708 12 6 9.95z" fill="#1EB6FF"/></svg>