<svg width="19" height="18" fill="none" xmlns="http://www.w3.org/2000/svg"><path fill-rule="evenodd" clip-rule="evenodd" d="M19 11.036V18h-4.072v-6.498c0-1.632-.59-2.746-2.063-2.746-1.126 0-1.795.75-2.09 1.477-.107.26-.135.62-.135.984V18H6.566s.055-11.005 0-12.145h4.074v1.721c-.009.013-.02.027-.027.04h.027v-.04c.54-.826 1.507-2.007 3.67-2.007 2.68 0 4.69 1.736 4.69 5.467zM2.305 0C.912 0 0 .906 0 2.098c0 1.166.885 2.1 2.251 2.1h.027c1.42 0 2.304-.934 2.304-2.1C4.556.906 3.7 0 2.305 0zM.242 18h4.072V5.855H.242V18z" fill="#B9B9B9"/></svg>