<svg width="20" height="16" fill="none" xmlns="http://www.w3.org/2000/svg"><path fill-rule="evenodd" clip-rule="evenodd" d="M19.172.788c-.484-.496-1.185-.76-2.083-.785-2.535-.077-4.329 1.204-5.33 3.808a.372.372 0 00.084.396c.104.107.26.15.406.111.288-.075.573-.113.849-.113.37 0 .86.064 1.106.372.188.236.213.59.076 1.051-.116.39-.713 1.433-1.453 2.536-.9 1.345-1.397 1.947-1.54 1.947-.476 0-2.193-7.231-2.24-7.39-.492-1.657-.74-2.49-2.34-2.49C5.485.232 2.763 2.35.528 4.194c-.137.114-.253.21-.343.282a.487.487 0 00-.074.694l.417.51a.55.55 0 00.728.102l.023-.016c.723-.488 1.406-.95 1.922-.975.56-.026 1.047.805 1.626 2.784C5.932 11.418 7.61 16 9.331 16c1.799 0 3.944-1.449 6.718-4.878 2.511-3.104 3.855-5.566 3.942-7.357.065-1.353-.21-2.354-.819-2.977z" fill="#B9B9B9"/></svg>