<svg width="24" height="24" viewBox="0 0 24 24" fill="none" xmlns="http://www.w3.org/2000/svg">
<g id="info">
<rect id="bg" x="1" y="1" width="22" height="22" rx="11" stroke="white" stroke-width="2"/>
<path id="i" fill-rule="evenodd" clip-rule="evenodd" d="M13 8C13 8.55228 12.5523 9 12 9C11.4477 9 11 8.55228 11 8C11 7.44772 11.4477 7 12 7C12.5523 7 13 7.44772 13 8ZM12 10C11.4477 10 11 10.4477 11 11V16C11 16.5523 11.4477 17 12 17C12.5523 17 13 16.5523 13 16V11C13 10.4477 12.5523 10 12 10Z" fill="white"/>
</g>
</svg>
