<svg width="68" height="12" viewBox="0 0 68 12" fill="none" xmlns="http://www.w3.org/2000/svg">
<path fill-rule="evenodd" clip-rule="evenodd" d="M62 9.95016L58.2918 12L59 7.65836L56 4.58359L60.1459 3.95016L62 0L63.8541 3.95016L68 4.58359L65 7.65836L65.7082 12L62 9.95016Z" fill="#1EB6FF"/>
<path fill-rule="evenodd" clip-rule="evenodd" d="M48 9.95016L44.2918 12L45 7.65836L42 4.58359L46.1459 3.95016L48 0L49.8541 3.95016L54 4.58359L51 7.65836L51.7082 12L48 9.95016Z" fill="#1EB6FF"/>
<path fill-rule="evenodd" clip-rule="evenodd" d="M34 9.95016L30.2918 12L31 7.65836L28 4.58359L32.1459 3.95016L34 0L35.8541 3.95016L40 4.58359L37 7.65836L37.7082 12L34 9.95016Z" fill="#1EB6FF"/>
<path fill-rule="evenodd" clip-rule="evenodd" d="M20 9.95016L16.2918 12L17 7.65836L14 4.58359L18.1459 3.95016L20 0L21.8541 3.95016L26 4.58359L23 7.65836L23.7082 12L20 9.95016Z" fill="#1EB6FF"/>
<path fill-rule="evenodd" clip-rule="evenodd" d="M6 9.95016L2.2918 12L3 7.65836L0 4.58359L4.1459 3.95016L6 0L7.8541 3.95016L12 4.58359L9 7.65836L9.7082 12L6 9.95016Z" fill="#1EB6FF"/>
</svg>
