<svg width="140" height="32" fill="none" xmlns="http://www.w3.org/2000/svg"><path fill-rule="evenodd" clip-rule="evenodd" d="M45.019 12.086c-1.854.415-3.483 1.704-4.303 3.416-1.335 2.633-.618 6.137 1.728 7.966 2.41 1.998 6.275 1.855 8.518-.334 2.347-2.156 2.67-6.067.758-8.602-1.475-2.067-4.24-3.04-6.701-2.446zm7.944-7.379c.508 0 1.019-.003 1.53 0 .007 7.1 0 14.2.004 21.3-.512 0-1.023.003-1.527.01-.007-1.153-.018-2.306.008-3.46-.835 1.352-1.983 2.553-3.472 3.167-2.983 1.314-6.738.517-8.912-1.91-2.409-2.564-2.743-6.744-.86-9.697 1.508-2.468 4.476-3.911 7.352-3.636 2.453.133 4.667 1.65 5.884 3.75-.014-3.173 0-6.346-.007-9.524zm11.034 7.257c-3.818.65-6.175 5.15-4.714 8.723 1.204 3.613 5.852 5.302 9.116 3.414 3.238-1.666 4.317-6.24 2.346-9.27-1.355-2.265-4.197-3.425-6.748-2.867zm-5.059 1.485c1.865-2.508 5.283-3.654 8.279-2.834 1.916.462 3.49 1.822 4.533 3.473-.025-1.13-.022-2.264-.014-3.391.514 0 1.031 0 1.553.003-.008 5.106.007 10.209-.008 15.315-.389-.004-1.16-.008-1.545-.012a117.19 117.19 0 01.014-3.406c-.862 1.363-2.044 2.564-3.557 3.163-3.084 1.322-6.942.373-9.053-2.247-2.357-2.778-2.437-7.193-.202-10.064zm38.863-1.482c-3.831.665-6.169 5.205-4.671 8.777 1.236 3.568 5.83 5.223 9.071 3.361 3.262-1.662 4.344-6.265 2.348-9.3-1.365-2.258-4.201-3.403-6.748-2.838zm-5.057 1.511c1.85-2.523 5.27-3.683 8.271-2.867 1.927.459 3.512 1.818 4.554 3.48a116.468 116.468 0 01-.014-3.394c.513 0 1.035 0 1.556.003 0 5.101-.004 10.199.003 15.3-.524 0-1.046.004-1.559.008.003-1.13-.015-2.261 0-3.391-1.028 1.688-2.65 3.036-4.584 3.49-2.96.783-6.319-.347-8.172-2.807-2.19-2.774-2.212-7.022-.055-9.822z" fill="#fff"/><mask id="a" maskUnits="userSpaceOnUse" x="125" y="10" width="15" height="17"><path fill-rule="evenodd" clip-rule="evenodd" d="M139.748 10.68v15.4h-14.682v-15.4h14.682z" fill="#fff"/></mask><g mask="url(#a)"><path fill-rule="evenodd" clip-rule="evenodd" d="M128.064 14.088c-.891.992-1.335 2.3-1.489 3.62 3.891-.019 7.786 0 11.677-.011-.199-1.508-.713-3.033-1.842-4.082-2.269-2.226-6.311-1.931-8.346.473zm-1.64-.267c2.203-3.346 7.269-4.181 10.402-1.714 2.104 1.622 3.08 4.409 2.901 7.04-4.391.007-8.779-.007-13.17.007.2 1.138.528 2.294 1.262 3.207 2.371 3.154 7.881 3.09 9.958-.37.416.253.835.509 1.262.765-2.483 4.043-8.762 4.413-11.929 1.035-2.476-2.614-2.699-7.015-.686-9.97z" fill="#fff"/></g><path fill-rule="evenodd" clip-rule="evenodd" d="M76.225 10.674c.546-.004 1.1-.004 1.657-.008 2.013 4.498 4.089 8.97 6.087 13.476 1.885-4.457 3.513-9.022 5.354-13.498l1.613.026c-2.226 5.62-4.433 11.245-6.673 16.859-.95 2.407-3.154 4.6-5.904 4.465a93.34 93.34 0 010-1.42c2.556.088 4.129-2.282 4.859-4.436-2.344-5.147-4.654-10.313-6.993-15.465zm34.07-.31c.618-.004 1.236-.011 1.865-.011 1.616 2.027 3.207 4.075 4.82 6.11 1.616-2.035 3.225-4.076 4.846-6.106.606 0 1.22 0 1.838.003-1.905 2.434-3.821 4.853-5.726 7.283 2.023 2.593 4.073 5.168 6.089 7.769a97.884 97.884 0 00-1.876-.004c-1.724-2.186-3.444-4.37-5.171-6.549-1.732 2.18-3.448 4.373-5.179 6.553a145.39 145.39 0 00-1.868 0c2.027-2.59 4.084-5.154 6.122-7.737-1.916-2.44-3.844-4.874-5.76-7.311zm-97.54 3.234c-1.605.317-2.975 1.634-3.38 3.26-.427 1.517.036 3.241 1.131 4.345 1.045 1.102 2.671 1.592 4.128 1.216 1.61-.373 2.951-1.758 3.289-3.42.343-1.479-.138-3.123-1.204-4.179-1.01-1.055-2.554-1.528-3.964-1.222zm-.453-5.539c-3.802.488-7.142 3.483-8.126 7.283-.862 3.075-.144 6.545 1.838 9.013 2.138 2.75 5.758 4.194 9.145 3.601 1.274-.232 2.578-.635 3.624-1.437.665-.608-.251-1.835-.967-1.227-2.363 1.442-5.431 1.564-7.88.272-2.124-1.082-3.743-3.151-4.301-5.517-.675-2.704.084-5.725 1.957-7.751 1.268-1.419 3.025-2.369 4.885-2.626 2.412-.363 4.962.451 6.738 2.165a8.508 8.508 0 012.624 5.683c.035 2.529-.033 5.062.03 7.59.143.813 1.388.82 1.546.013.058-2.326.004-4.654.025-6.982.033-2.985-1.297-5.951-3.55-7.842-2.076-1.788-4.902-2.637-7.588-2.238zM23.443.004C24.709-.002 25.977 0 27.245.002c.004 5.972 0 11.941.002 17.913a14.093 14.093 0 01-2.943 8.787c-2.087 2.721-5.198 4.593-8.534 5.121A13.326 13.326 0 016.765 30.1c-2.437-1.45-4.41-3.697-5.565-6.333-1.418-3.191-1.584-6.94-.473-10.257 1.01-3.054 3.089-5.716 5.772-7.394a13.347 13.347 0 019.483-1.853c2.828.483 5.445 1.967 7.462 4.044-.004-2.767-.002-5.534-.002-8.302z" fill="#fff"/></svg>